# xmcd
#
# Track frame offsets: 
#        150
#        14367
#        36140
#        61412
#        71142
#        87747
#        96822
#        112440
#        118265
#        134237
#        150975
#        159077
#        160945
#
# Disc length: 2430 seconds
#
# Revision: 5
# Processed by: cddbd v1.5.2PL0 Copyright (c) Steve Scherf et al.
# Submitted via: ExactAudioCopy v1.0b3
#
DISCID=b8097c0d
DTITLE=Mahavishnu Orchestra - Visions Of The Emerald Beyond (Original 
DTITLE=Album Classics 2007)
DYEAR=1974
DGENRE=Jazz
TTITLE0=Eternity's Breath (Part 1)
TTITLE1=Eternity's Breath (Part 2)
TTITLE2=Lila's Dance
TTITLE3=Can't Stand Your Funk
TTITLE4=Pastoral
TTITLE5=Faith
TTITLE6=Cosmic Strut
TTITLE7=If I Could See
TTITLE8=Be Happy
TTITLE9=Earth Ship
TTITLE10=Pegasus
TTITLE11=Opus 1
TTITLE12=On The Way Home To Earth
EXTD=YEAR: 1991
EXTT0=
EXTT1=
EXTT2=
EXTT3=
EXTT4=
EXTT5=
EXTT6=
EXTT7=
EXTT8=
EXTT9=
EXTT10=
EXTT11=
EXTT12=
PLAYORDER=
